<svg xmlns="http://www.w3.org/2000/svg" viewBox="0 0 720 360" role="img" aria-labelledby="title desc"><title id="title">Loosen an old guitar string</title><desc id="desc">A close view of a headstock shows a tuning key rotating counterclockwise while a loose string lifts from the post.</desc><defs><linearGradient id="bg" x2="1" y2="1"><stop stop-color="#111827"/><stop offset="1" stop-color="#17243a"/></linearGradient><marker id="arrow" markerWidth="10" markerHeight="10" refX="8" refY="5" orient="auto"><path d="M0 0l10 5-10 5z" fill="#22d3ee"/></marker></defs><rect width="720" height="360" rx="24" fill="url(#bg)"/><path d="M173 80h336l87 52v99l-87 50H173z" fill="#9a5936" stroke="#f59e0b" stroke-width="5"/><g fill="#dbeafe" stroke="#64748b" stroke-width="5"><circle cx="268" cy="137" r="25"/><circle cx="397" cy="137" r="25"/><circle cx="268" cy="224" r="25"/><circle cx="397" cy="224" r="25"/></g><g stroke="#94a3b8" stroke-width="9" stroke-linecap="round"><path d="M268 112V73h-52"/><path d="M397 112V73h52"/><path d="M268 249v39h-52"/><path d="M397 249v39h52"/></g><path d="M78 181h190c42 0 40-44 0-44" fill="none" stroke="#e2e8f0" stroke-width="4"/><path d="M219 61c-76 24-81 106-23 137" fill="none" stroke="#22d3ee" stroke-width="8" marker-end="url(#arrow)"/><path d="M91 165c22-20 46-20 71 0" fill="none" stroke="#fb7185" stroke-width="5" stroke-dasharray="8 8"/></svg>
